<svg width="126" height="35" viewBox="0 0 126 35" fill="none" xmlns="http://www.w3.org/2000/svg">
<path d="M10.2168 24.8225C10.3426 25.2177 10.4954 25.6133 10.6761 26.0052C10.8563 26.3974 11.0618 26.7876 11.2962 27.17C11.3549 27.2656 11.4159 27.3601 11.479 27.4539C11.5373 27.5443 11.6169 27.6535 11.6845 27.7493L11.7675 27.8651L11.7883 27.894L11.7988 27.9085L11.8246 27.9409L11.876 28.0068C11.9452 28.0944 12.0145 28.1824 12.0842 28.2706C12.6531 28.965 13.3161 29.6021 14.0521 30.1508C14.4209 30.4231 14.8068 30.6759 15.2069 30.9049C15.2943 30.9538 15.3827 31.0013 15.4714 31.0481C15.8306 30.9361 16.1843 30.8162 16.5304 30.6865L17.0325 30.5L17.2913 30.3946C17.3816 30.3579 17.4598 30.326 17.5225 30.2976L17.6108 30.2588C17.75 30.1978 17.8816 30.1401 18.0139 30.077L18.03 30.0695C18.1901 29.9969 18.3549 29.9155 18.5091 29.8382C19.1748 29.505 19.8028 29.1386 20.3758 28.7487C20.5135 28.6558 20.65 28.5592 20.7854 28.4595C19.6957 28.3621 18.6446 28.1287 17.6765 27.7684C16.4163 27.3019 15.296 26.6191 14.3988 25.7511C14.3436 25.6959 14.2885 25.6409 14.2336 25.586L14.192 25.5452C14.1944 25.5489 14.172 25.5227 14.1947 25.5509L14.1827 25.5379L14.1588 25.512L14.0632 25.4086C14.0157 25.355 13.9772 25.3185 13.9256 25.2567C13.8759 25.2007 13.8284 25.1426 13.7804 25.085C13.5883 24.8546 13.4108 24.6104 13.2481 24.3575C12.9259 23.8498 12.6467 23.3152 12.4352 22.7672C11.9968 21.6749 11.783 20.5595 11.727 19.5555C11.6674 18.548 11.7763 17.6504 11.9445 16.9226C12.1133 16.1933 12.3438 15.6343 12.5191 15.2601C12.6069 15.0726 12.6818 14.9312 12.7321 14.835C12.7839 14.7394 12.8106 14.6901 12.8106 14.6901L13.2865 13.8829L12.5587 14.4238C12.5587 14.4238 12.5136 14.4589 12.4263 14.5269C12.339 14.5956 12.2131 14.7026 12.0543 14.8531C11.7384 15.1538 11.2971 15.644 10.8638 16.3926C10.431 17.1378 10.0247 18.1514 9.80904 19.3928C9.59398 20.6312 9.57766 22.0947 9.90203 23.6484C9.98383 24.0362 10.0895 24.428 10.2168 24.8225Z" fill="#FA1239"/>
<path d="M36.8434 11.6631C36.7216 11.0222 36.5768 10.4236 36.4212 9.86951C36.2717 9.33959 36.1129 8.85137 35.9516 8.40393L38.9609 9.10156L32.4441 0L33.2385 12.199L35.1618 8.69329C35.2665 9.13651 35.365 9.61559 35.4477 10.1307C35.5353 10.6705 35.6059 11.2479 35.6532 11.8566C35.7019 12.4651 35.7271 13.1054 35.7154 13.7702C35.6965 15.0992 35.5262 16.5268 35.1589 17.9619C34.7881 19.3954 34.2082 20.8317 33.4016 22.159L33.2482 22.4068L33.0903 22.6524L32.9267 22.8978C32.8651 22.9934 32.8153 23.0581 32.7624 23.132L32.684 23.2412L32.5981 23.3542C32.5394 23.4293 32.4841 23.5072 32.4228 23.5803L32.2418 23.8025L32.0541 24.0193C31.5445 24.5901 30.982 25.1202 30.3668 25.5904C29.8362 25.9987 29.2707 26.3675 28.6791 26.6939C28.1778 27.6014 27.6238 28.4287 27.0294 29.1534L26.9375 29.2637C26.8075 29.42 26.6731 29.5816 26.5142 29.753L26.2806 30.0096L25.8672 30.4276L25.4536 30.817L25.4376 30.8309C25.3827 30.8782 25.3283 30.9262 25.2738 30.9743C25.1514 31.0824 25.0247 31.1942 24.8873 31.3043C24.586 31.5524 24.2759 31.789 23.9591 32.0145C23.9752 32.0105 23.9907 32.0071 24.0071 32.003L24.189 31.9587C24.2467 31.944 24.2923 31.9298 24.3445 31.9151L24.6765 31.8194C25.1097 31.6886 25.5402 31.5409 25.9676 31.3816C26.3953 31.223 26.8205 31.0537 27.24 30.8654C28.9155 30.1157 30.5422 29.165 31.9607 27.9146C32.6712 27.2948 33.325 26.5997 33.9041 25.8487L34.1178 25.5644L34.3233 25.2742C34.3924 25.1783 34.4556 25.0773 34.5216 24.9793L34.6194 24.8302L34.7175 24.6722C34.7819 24.5678 34.852 24.4568 34.9002 24.3694C34.9571 24.2697 35.0139 24.1701 35.0705 24.0707C35.1803 23.8676 35.2865 23.6634 35.3878 23.4573C35.7904 22.6315 36.1228 21.7852 36.386 20.9375C36.6481 20.0892 36.8387 19.2395 36.9703 18.4072C37.1032 17.5748 37.1709 16.7582 37.1903 15.9715C37.2106 15.1846 37.1836 14.4272 37.1208 13.7072C37.0595 12.9872 36.9618 12.3044 36.8434 11.6631Z" fill="#FA1239"/>
<path d="M29.4607 20.2605C29.4865 20.0588 29.4554 19.8576 29.4517 19.6567C29.4414 19.5267 29.4202 19.3967 29.41 19.267C29.3997 19.1372 29.3886 19.0076 29.3759 18.8783C29.3607 18.7498 29.3383 18.6231 29.3194 18.4956C29.2992 18.3684 29.2791 18.2414 29.259 18.1147C29.2405 17.9874 29.2051 17.8655 29.1785 17.7411C29.119 17.4943 29.0692 17.2445 28.9904 17.0069C28.8486 16.5253 28.6761 16.061 28.48 15.615C28.3758 15.3954 28.2755 15.1749 28.1667 14.9613C28.0486 14.7537 27.931 14.5472 27.8141 14.3417C27.3205 13.5383 26.7403 12.8273 26.1075 12.2209C25.4749 11.6147 24.79 11.1086 24.0749 10.733L23.9427 10.6605L23.9097 10.6426L23.8399 10.6034L23.8256 10.5972L23.7682 10.5724C23.6919 10.5394 23.6158 10.5065 23.54 10.4737C23.4643 10.4409 23.3889 10.4084 23.3139 10.3759L23.2565 10.3513L23.1837 10.3238L23.0385 10.2695C22.942 10.2342 22.846 10.1992 22.7505 10.1644C22.6561 10.1321 22.5579 10.0917 22.4681 10.0692C22.2895 10.0242 22.1126 9.9797 21.9375 9.93554C21.2356 9.78505 20.5589 9.70939 19.9213 9.73119C19.8419 9.73203 19.763 9.73281 19.6846 9.73358C19.6064 9.74033 19.5287 9.74701 19.4515 9.75362C19.2982 9.76797 19.147 9.78203 18.998 9.79595C18.7019 9.84454 18.4158 9.88301 18.1441 9.95466C17.053 10.2132 16.172 10.6508 15.5079 11.0883C15.4255 11.144 15.3452 11.1981 15.2672 11.2508C15.2286 11.2771 15.1906 11.3032 15.1531 11.3288C15.1172 11.3576 15.0817 11.3861 15.0468 11.4141C14.9094 11.5258 14.7806 11.6306 14.6608 11.728C14.4316 11.9383 14.2454 12.1232 14.0993 12.2762C13.8188 12.602 13.6814 12.7779 13.6814 12.7779L13.2498 13.3802L13.8929 13.0836C13.8929 13.0836 14.09 13.0023 14.4363 12.8456C14.5238 12.8081 14.6267 12.7764 14.7347 12.7349C14.8442 12.696 14.9591 12.6467 15.0887 12.6076C15.2174 12.5697 15.3558 12.5288 15.5033 12.4853C15.5398 12.4746 15.5768 12.4638 15.6143 12.4527C15.6528 12.4443 15.6918 12.4356 15.7314 12.4269C15.8098 12.4093 15.8904 12.3912 15.9733 12.3726C16.6342 12.2307 17.4391 12.1431 18.3312 12.1956C18.4421 12.1963 18.5555 12.2146 18.6694 12.2277C18.7832 12.2403 18.8982 12.2501 19.0141 12.2646C19.1292 12.2857 19.246 12.3071 19.3644 12.3288C19.4231 12.3395 19.4821 12.3503 19.5416 12.3611C19.6004 12.376 19.6595 12.391 19.719 12.4061C19.8377 12.436 19.9576 12.4629 20.0775 12.4946C20.1956 12.5335 20.3151 12.5728 20.436 12.6126C20.5571 12.6479 20.6752 12.6987 20.7948 12.746C20.8544 12.7696 20.9143 12.7932 20.9746 12.8171L21.0649 12.8524L21.1529 12.8962C21.2698 12.9534 21.3878 13.0113 21.5071 13.0697C21.6169 13.1305 21.7129 13.1915 21.8174 13.2495L21.8946 13.2929L21.9333 13.3143L21.9843 13.3475C22.0536 13.3929 22.1231 13.4385 22.193 13.4843C22.2628 13.5301 22.333 13.5761 22.4035 13.6224L22.4564 13.6572L22.4696 13.6659C22.3664 13.6082 22.4468 13.6546 22.4263 13.6439L22.4463 13.6604L22.5267 13.7262C22.9678 14.0522 23.3788 14.4622 23.7594 14.9199C24.1397 15.3788 24.4856 15.8948 24.787 16.4549C25.0862 17.0166 25.3376 17.6231 25.5308 18.258C25.5884 18.414 25.6221 18.5774 25.6664 18.7387C25.7137 18.8997 25.7439 19.0643 25.7782 19.2292C25.7945 19.3117 25.815 19.394 25.829 19.4772C25.8396 19.5607 25.8517 19.6441 25.8647 19.7278L25.9042 19.9795L25.9231 20.1976L25.9498 20.4171C25.9507 20.4273 25.9528 20.4333 25.9529 20.4469L25.9534 20.4876L25.9544 20.5692L25.9566 20.7325L25.9622 21.0597L25.963 21.1007L25.9635 21.1211C25.9701 20.981 25.9649 21.0917 25.9663 21.0647L25.9642 21.1302L25.9603 21.2616C25.9564 21.6131 25.9129 21.968 25.8661 22.327C25.7541 23.0429 25.5577 23.7679 25.2718 24.4691C25.1253 24.8179 24.9697 25.1674 24.7805 25.4992C24.6937 25.6702 24.5887 25.8295 24.4914 25.9946C24.4417 26.0765 24.3865 26.1544 24.3345 26.2348C24.2809 26.3139 24.2313 26.3965 24.1737 26.4726C24.0615 26.6262 23.9485 26.788 23.8393 26.9222L23.7569 27.0281L23.7158 27.0813L23.6951 27.1081L23.6687 27.1386L23.4584 27.3829L23.4058 27.4439L23.3795 27.4744L23.3664 27.4897C23.4012 27.4529 23.369 27.4871 23.3736 27.4822L23.276 27.5878L23.0808 27.7994C22.9442 27.9338 22.8135 28.075 22.6721 28.2046C22.1145 28.7315 21.5154 29.2166 20.8807 29.6454C20.2473 30.0762 19.5847 30.4585 18.9069 30.7978C18.7375 30.8826 18.5678 30.9663 18.396 31.0443C18.2239 31.1264 18.0564 31.1986 17.8887 31.2723C17.8077 31.309 17.7163 31.3462 17.6247 31.3833C17.5339 31.4204 17.4432 31.4573 17.3527 31.4943C17.181 31.558 17.0101 31.6215 16.8398 31.6848C15.4518 32.2048 14.0568 32.5547 12.7145 32.778C11.3713 33.0002 10.0792 33.0833 8.88441 33.0721C8.7349 33.0696 8.58699 33.0672 8.44068 33.0647C8.36739 33.0635 8.29456 33.0623 8.2221 33.0611C8.14984 33.057 8.07797 33.0528 8.00648 33.0487C7.72 33.0319 7.44011 33.0156 7.16726 32.9996C6.624 32.9398 6.10429 32.8971 5.62163 32.8119C4.65102 32.6713 3.81545 32.4649 3.12645 32.292C2.44622 32.1002 1.9123 31.938 1.54601 31.802C1.18042 31.6748 0.985465 31.6069 0.985465 31.6069L0 31.2495L0.859186 31.965C0.859186 31.965 1.04486 32.0592 1.39304 32.2358C1.73501 32.4194 2.26445 32.6545 2.94391 32.9437C3.1148 33.01 3.29491 33.0797 3.48372 33.1529C3.67304 33.2254 3.86998 33.307 4.08049 33.3721C4.29036 33.441 4.5088 33.5128 4.73538 33.5873C4.79215 33.6059 4.84943 33.6246 4.90723 33.6435C4.9656 33.6597 5.02448 33.676 5.08381 33.6926C5.20273 33.7255 5.32363 33.7592 5.44652 33.7933C5.93679 33.9404 6.46757 34.0492 7.02709 34.1783C7.30903 34.2288 7.59826 34.2806 7.89428 34.3336C7.96846 34.3466 8.04315 34.3597 8.11816 34.3728C8.19356 34.3823 8.2694 34.3918 8.34563 34.4014C8.49834 34.4206 8.65272 34.4401 8.80876 34.4597C10.058 34.6071 11.427 34.6683 12.877 34.5872C14.3266 34.5085 15.8551 34.2745 17.4096 33.8655C17.5067 33.8394 17.604 33.8133 17.7014 33.7871L17.8479 33.7477L17.9212 33.7279L17.9579 33.718C17.9686 33.7147 17.9599 33.7184 17.9866 33.7094L18.004 33.704C18.097 33.6756 18.1902 33.6472 18.2835 33.6187C18.3763 33.5907 18.4695 33.5624 18.5716 33.5275C18.7711 33.4612 18.9727 33.3949 19.1662 33.3234C19.3624 33.2549 19.5579 33.1797 19.7538 33.1029C20.5385 32.799 21.3181 32.425 22.0853 31.9897C22.8533 31.5564 23.6026 31.0442 24.316 30.4563C24.4961 30.3123 24.6677 30.1535 24.844 30.0014L25.1003 29.7604L25.2285 29.6395L25.3623 29.504L25.5876 29.2763L25.6157 29.2478L25.6474 29.2133L25.7108 29.1437L25.8375 29.004C26.0123 28.8159 26.1603 28.6327 26.3155 28.4474C26.9274 27.7013 27.466 26.876 27.9401 25.9982C28.1703 25.5545 28.3865 25.0991 28.5703 24.624C28.7635 24.1538 28.916 23.661 29.0556 23.1635C29.1811 22.6606 29.2912 22.1504 29.3543 21.6293L29.3797 21.4343L29.3924 21.3367L29.404 21.1782L29.4288 20.852L29.4416 20.6892L29.45 20.6079L29.4584 20.5673C29.4594 20.553 29.4714 20.5304 29.4701 20.513C29.4674 20.428 29.4641 20.3456 29.4607 20.2605Z" fill="#FA1239"/>
<path d="M54.8107 16.897C54.2093 17.2273 53.007 17.5575 51.4664 17.5575C47.8965 17.5575 45.2097 15.0804 45.2097 10.5185C45.2097 6.16294 47.8965 3.21103 51.8233 3.21103C53.4016 3.21103 54.3974 3.58253 54.8295 3.8302L54.4349 5.29582C53.8149 4.96551 52.9318 4.7177 51.8797 4.7177C48.9111 4.7177 46.9383 6.80263 46.9383 10.4562C46.9383 13.8622 48.7231 16.0503 51.8045 16.0503C52.8004 16.0503 53.8149 15.8232 54.4725 15.4723L54.8107 16.897Z" fill="black"/>
<path d="M67.2863 10.2501C67.2863 15.0392 64.6371 17.5781 61.4054 17.5781C58.0611 17.5781 55.7124 14.7295 55.7124 10.5186C55.7124 6.10107 58.2113 3.21115 61.5933 3.21115C65.0504 3.21115 67.2863 6.12174 67.2863 10.2501ZM57.4598 10.4773C57.4598 13.4497 58.9253 16.1126 61.4993 16.1126C64.0922 16.1126 65.5576 13.491 65.5576 10.3328C65.5576 7.5667 64.2424 4.67677 61.5179 4.67677C58.8126 4.67677 57.4598 7.42221 57.4598 10.4773Z" fill="black"/>
<path d="M80.0816 11.2411C79.9877 9.3008 79.8748 6.96821 79.8936 5.23425H79.8373C79.4052 6.86503 78.8791 8.59899 78.2403 10.5188L76.0045 17.2688H74.7644L72.7165 10.6426C72.1153 8.68149 71.6079 6.88569 71.2509 5.23439H71.2135C71.1758 6.96834 71.0819 9.30095 70.9692 11.3859L70.6311 17.3514H69.0717L69.9547 3.43844H72.0403L74.2009 10.1679C74.727 11.8811 75.159 13.4087 75.4785 14.8538H75.5349C75.8543 13.45 76.3052 11.9225 76.8689 10.1679L79.1236 3.43844H81.2091L81.9982 17.3514H80.4012L80.0816 11.2411Z" fill="black"/>
<path d="M84.5153 3.60332C85.3044 3.45897 86.3377 3.33499 87.6529 3.33499C89.2688 3.33499 90.4523 3.74782 91.2038 4.49096C91.8992 5.15145 92.3124 6.16307 92.3124 7.40155C92.3124 8.66083 91.9743 9.65151 91.3354 10.3741C90.4711 11.3856 89.0619 11.9016 87.465 11.9016C86.9764 11.9016 86.5255 11.8809 86.1497 11.7776V17.3511H84.5151L84.5153 3.60332ZM86.1499 10.312C86.507 10.4153 86.9578 10.4565 87.5027 10.4565C89.4755 10.4565 90.678 9.40384 90.678 7.48406C90.678 5.64693 89.4945 4.75915 87.6907 4.75915C86.9767 4.75915 86.4318 4.821 86.1499 4.90365V10.312Z" fill="black"/>
<path d="M94.9808 12.9751L93.6656 17.3513H91.9745L96.277 3.4383H98.2498L102.571 17.3513H100.824L99.471 12.9751H94.9808ZM99.1331 11.5713L97.893 7.56656C97.6112 6.6584 97.4233 5.83261 97.2354 5.02748H97.1978C97.0099 5.85327 96.8034 6.69958 96.559 7.5459L95.3189 11.5711H99.1331V11.5713Z" fill="black"/>
<path d="M104.432 17.3511V3.43815H106.216L110.275 10.4773C111.214 12.1081 111.947 13.5737 112.548 14.998L112.586 14.9773C112.436 13.1195 112.398 11.4268 112.398 9.25947V3.4383H113.939V17.3513H112.285L108.264 10.2916C107.381 8.74347 106.536 7.15387 105.897 5.64706L105.841 5.66758C105.935 7.4222 105.972 9.09431 105.972 11.4061V17.3511H104.432Z" fill="black"/>
<path d="M119.481 17.3511V11.4474L115.479 3.43815H117.34L119.124 7.27771C119.613 8.33037 119.989 9.17682 120.383 10.147H120.421C120.778 9.23867 121.21 8.33037 121.699 7.27771L123.521 3.43815H125.381L121.135 11.4268V17.3511H119.481Z" fill="black"/>
<path d="M44.9835 29.0784C45.0092 28.599 45.0349 28.0067 45.0349 27.4992V19.0671H45.6381V23.5652H45.6637C46.0744 22.6909 46.8315 22.1551 47.9224 22.1551C49.4754 22.1551 50.5535 23.5791 50.5535 25.6239C50.5535 28.0351 49.1545 29.2335 47.8071 29.2335C46.8188 29.2335 46.0873 28.7964 45.5996 27.8516H45.5739L45.5354 29.0784H44.9835ZM45.6381 26.4699C45.6381 26.625 45.6637 26.7942 45.6894 26.9634C45.9589 27.9928 46.7547 28.6696 47.7172 28.6696C49.129 28.6696 49.9376 27.4005 49.9376 25.638C49.9376 24.087 49.1675 22.705 47.7686 22.705C46.8702 22.705 46.0103 23.396 45.7151 24.524C45.6766 24.6932 45.6381 24.8764 45.6381 25.1161V26.4699Z" fill="black"/>
<path d="M56.8551 27.4287C56.8551 28.0208 56.8807 28.5567 56.9064 29.0784H56.3417L56.3032 27.8798H56.2775C55.9695 28.5003 55.2636 29.2335 54.1599 29.2335C53.377 29.2335 52.0679 28.8105 52.0679 26.2442V22.3102H52.6711V26.1173C52.6711 27.5837 53.0945 28.6413 54.3139 28.6413C55.2123 28.6413 55.8668 27.9503 56.1235 27.2735C56.1877 27.062 56.2518 26.7941 56.2518 26.5262V22.3102H56.8551V27.4287Z" fill="black"/>
<path d="M58.6774 28.19C59.0111 28.4156 59.5116 28.6554 60.0635 28.6554C61.0389 28.6554 61.5008 28.0772 61.5008 27.3723C61.5008 26.6251 61.0901 26.2302 60.2046 25.8354C59.1907 25.4124 58.6388 24.806 58.6388 23.9883C58.6388 23.0154 59.3318 22.1553 60.5383 22.1553C61.103 22.1553 61.5778 22.3386 61.8987 22.5783L61.6548 23.1281C61.4495 22.9589 61.0516 22.7191 60.4356 22.7191C59.6527 22.7191 59.242 23.2691 59.242 23.8895C59.242 24.5945 59.6784 24.9046 60.5126 25.2855C61.5137 25.7083 62.104 26.2584 62.104 27.2876C62.104 28.4438 61.2826 29.2194 60.0249 29.2194C59.4217 29.2194 58.8698 29.0361 58.4591 28.7541L58.6774 28.19Z" fill="black"/>
<path d="M64.5168 20.3786C64.5168 20.6888 64.3243 20.9567 64.0034 20.9567C63.7211 20.9567 63.5286 20.6888 63.5286 20.3786C63.5286 20.0682 63.7467 19.7864 64.0291 19.7864C64.3243 19.7864 64.5168 20.0543 64.5168 20.3786ZM63.7211 29.0784V22.3102H64.3243V29.0784H63.7211Z" fill="black"/>
<path d="M66.4034 23.9318C66.4034 23.3114 66.3777 22.8462 66.3521 22.3104H66.9168L66.9681 23.537H66.9938C67.3275 22.7755 68.0975 22.1553 69.1114 22.1553C69.7018 22.1553 71.2547 22.4796 71.2547 25.0175V29.0785H70.6515V25.0739C70.6515 23.8472 70.2152 22.7332 68.9446 22.7332C68.0718 22.7332 67.3404 23.4101 67.0966 24.2843C67.0452 24.4535 67.0067 24.679 67.0067 24.8906V29.0784H66.4035V23.9318H66.4034Z" fill="black"/>
<path d="M73.3725 25.6239C73.3725 27.7954 74.4506 28.6413 75.7212 28.6413C76.6196 28.6413 77.0816 28.4438 77.4281 28.2605L77.5821 28.7964C77.3511 28.9374 76.7222 29.2192 75.6442 29.2192C73.873 29.2192 72.7694 27.8092 72.7694 25.8211C72.7694 23.565 73.9502 22.155 75.5415 22.155C77.5565 22.155 77.9415 24.2417 77.9415 25.2147C77.9415 25.398 77.9415 25.5108 77.9158 25.6237H73.3725V25.6239ZM77.2997 25.088C77.3125 24.1432 76.9531 22.705 75.4645 22.705C74.1041 22.705 73.5137 24.0446 73.411 25.088H77.2997Z" fill="black"/>
<path d="M79.2505 28.19C79.5842 28.4156 80.0848 28.6554 80.6366 28.6554C81.6121 28.6554 82.0741 28.0772 82.0741 27.3723C82.0741 26.6251 81.6634 26.2302 80.7778 25.8354C79.7639 25.4124 79.212 24.806 79.212 23.9883C79.212 23.0154 79.9051 22.1553 81.1115 22.1553C81.6762 22.1553 82.1511 22.3386 82.4718 22.5783L82.228 23.1281C82.0226 22.9589 81.6248 22.7191 81.0087 22.7191C80.2258 22.7191 79.8151 23.2691 79.8151 23.8895C79.8151 24.5945 80.2515 24.9046 81.0857 25.2855C82.0868 25.7083 82.6772 26.2584 82.6772 27.2876C82.6772 28.4438 81.8558 29.2194 80.598 29.2194C79.9948 29.2194 79.4429 29.0361 79.0322 28.7541L79.2505 28.19Z" fill="black"/>
<path d="M84.0373 28.19C84.371 28.4156 84.8715 28.6554 85.4234 28.6554C86.3988 28.6554 86.8608 28.0772 86.8608 27.3723C86.8608 26.6251 86.4501 26.2302 85.5646 25.8354C84.5506 25.4124 83.9988 24.806 83.9988 23.9883C83.9988 23.0154 84.6918 22.1553 85.8982 22.1553C86.463 22.1553 86.9378 22.3386 87.2587 22.5783L87.0148 23.1281C86.8095 22.9589 86.4116 22.7191 85.7956 22.7191C85.0127 22.7191 84.602 23.2691 84.602 23.8895C84.602 24.5945 85.0384 24.9046 85.8726 25.2855C86.8735 25.7083 87.464 26.2584 87.464 27.2876C87.464 28.4438 86.6426 29.2194 85.3849 29.2194C84.7817 29.2194 84.2298 29.0361 83.8191 28.7541L84.0373 28.19Z" fill="black"/>
<path d="M92.7388 20.3504V22.3104H94.497V22.8462H92.7388V27.2454C92.7388 28.1056 92.9826 28.6555 93.6372 28.6555C93.9579 28.6555 94.189 28.5992 94.343 28.5427L94.4199 29.0644C94.2147 29.1489 93.9322 29.2194 93.56 29.2194C93.1108 29.2194 92.7386 29.0644 92.5076 28.74C92.2252 28.3874 92.1227 27.8234 92.1227 27.1325V22.8461H91.0831V22.3102H92.1227V20.5618L92.7388 20.3504Z" fill="black"/>
<path d="M99.22 29.0784L99.1301 28.1054H99.0915C98.7965 28.627 98.1161 29.2335 97.128 29.2335C95.8959 29.2335 95.3184 28.2746 95.3184 27.3722C95.3184 25.807 96.5761 24.8624 99.0788 24.8906V24.7214C99.0788 24.0444 98.9633 22.705 97.5002 22.7191C96.9611 22.7191 96.3964 22.8741 95.9602 23.2268L95.7676 22.7332C96.3194 22.3243 97.0125 22.1551 97.5644 22.1551C99.3483 22.1551 99.682 23.6216 99.682 24.8341V27.4709C99.682 28.0067 99.7077 28.5565 99.7719 29.0784H99.22ZM99.0787 25.4547C97.7312 25.4122 95.9601 25.638 95.9601 27.2595C95.9601 28.2325 96.5505 28.6696 97.192 28.6696C98.2188 28.6696 98.7963 27.9787 99.0145 27.3159C99.053 27.1749 99.0787 27.0341 99.0787 26.907V25.4547Z" fill="black"/>
<path d="M106.638 22.3104C106.613 22.818 106.587 23.3538 106.587 24.0587V28.0913C106.587 29.8257 106.266 30.6858 105.753 31.2217C105.188 31.8139 104.354 32.0254 103.661 32.0254C102.955 32.0254 102.172 31.828 101.71 31.4473L101.928 30.8972C102.352 31.2076 102.955 31.4612 103.751 31.4612C105.047 31.4612 105.984 30.728 105.984 28.7257V27.767H105.958C105.637 28.4578 104.918 29.0784 103.815 29.0784C102.262 29.0784 101.171 27.5979 101.171 25.7506C101.171 23.396 102.583 22.1551 103.943 22.1551C105.162 22.1551 105.765 22.8883 106.022 23.4524H106.048L106.073 22.3102H106.638V22.3104ZM105.984 24.9047C105.984 24.665 105.958 24.4537 105.907 24.2561C105.65 23.4383 104.995 22.705 103.994 22.705C102.685 22.705 101.787 23.8895 101.787 25.6801C101.787 27.203 102.518 28.5143 103.969 28.5143C104.79 28.5143 105.56 27.9644 105.868 26.9916C105.945 26.766 105.984 26.5121 105.984 26.2725V24.9047Z" fill="black"/>
<path d="M108.666 19.0671H109.269V29.0784H108.666V19.0671Z" fill="black"/>
<path d="M112.182 20.3786C112.182 20.6888 111.99 20.9567 111.669 20.9567C111.386 20.9567 111.194 20.6888 111.194 20.3786C111.194 20.0682 111.412 19.7864 111.695 19.7864C111.99 19.7864 112.182 20.0543 112.182 20.3786ZM111.386 29.0784V22.3102H111.99V29.0784H111.386Z" fill="black"/>
<path d="M114.069 23.9318C114.069 23.3114 114.043 22.8462 114.018 22.3104H114.582L114.634 23.537H114.659C114.993 22.7755 115.763 22.1553 116.777 22.1553C117.367 22.1553 118.92 22.4796 118.92 25.0175V29.0785H118.317V25.0739C118.317 23.8472 117.881 22.7332 116.61 22.7332C115.737 22.7332 115.006 23.4101 114.762 24.2843C114.711 24.4535 114.672 24.679 114.672 24.8906V29.0784H114.069L114.069 23.9318Z" fill="black"/>
<path d="M121.038 25.6239C121.038 27.7954 122.116 28.6413 123.386 28.6413C124.285 28.6413 124.747 28.4438 125.093 28.2605L125.248 28.7964C125.017 28.9374 124.388 29.2192 123.31 29.2192C121.538 29.2192 120.435 27.8092 120.435 25.8211C120.435 23.565 121.615 22.155 123.207 22.155C125.222 22.155 125.607 24.2417 125.607 25.2147C125.607 25.398 125.607 25.5108 125.581 25.6237H121.038V25.6239ZM124.965 25.088C124.978 24.1432 124.619 22.705 123.13 22.705C121.769 22.705 121.179 24.0446 121.076 25.088H124.965Z" fill="black"/>
</svg>
