<svg width="20" height="21" viewBox="0 0 20 21" fill="none" xmlns="http://www.w3.org/2000/svg">
<path d="M11 7.62326H9V5.62326H11M11 15.6233H9V9.62326H11M10 0.62326C8.68678 0.62326 7.38642 0.881918 6.17317 1.38447C4.95991 1.88701 3.85752 2.62361 2.92893 3.55219C1.05357 5.42756 0 7.9711 0 10.6233C0 13.2754 1.05357 15.819 2.92893 17.6943C3.85752 18.6229 4.95991 19.3595 6.17317 19.8621C7.38642 20.3646 8.68678 20.6233 10 20.6233C12.6522 20.6233 15.1957 19.5697 17.0711 17.6943C18.9464 15.819 20 13.2754 20 10.6233C20 9.31004 19.7413 8.00968 19.2388 6.79643C18.7362 5.58317 17.9997 4.48078 17.0711 3.55219C16.1425 2.62361 15.0401 1.88701 13.8268 1.38447C12.6136 0.881918 11.3132 0.62326 10 0.62326Z" fill="black"/>
</svg>
