<svg width="18" height="19" viewBox="0 0 18 19" fill="none" xmlns="http://www.w3.org/2000/svg">
<path d="M9.00006 11.1783L2.46673 17.7116C2.22229 17.9561 1.91118 18.0783 1.5334 18.0783C1.15562 18.0783 0.844509 17.9561 0.600065 17.7116C0.35562 17.4672 0.233398 17.1561 0.233398 16.7783C0.233398 16.4005 0.35562 16.0894 0.600065 15.845L7.1334 9.31163L0.600065 2.7783C0.35562 2.53386 0.233398 2.22275 0.233398 1.84497C0.233398 1.46719 0.35562 1.15608 0.600065 0.911634C0.844509 0.667189 1.15562 0.544968 1.5334 0.544968C1.91118 0.544968 2.22229 0.667189 2.46673 0.911634L9.00006 7.44497L15.5334 0.911634C15.7778 0.667189 16.089 0.544968 16.4667 0.544968C16.8445 0.544968 17.1556 0.667189 17.4001 0.911634C17.6445 1.15608 17.7667 1.46719 17.7667 1.84497C17.7667 2.22275 17.6445 2.53386 17.4001 2.7783L10.8667 9.31163L17.4001 15.845C17.6445 16.0894 17.7667 16.4005 17.7667 16.7783C17.7667 17.1561 17.6445 17.4672 17.4001 17.7116C17.1556 17.9561 16.8445 18.0783 16.4667 18.0783C16.089 18.0783 15.7778 17.9561 15.5334 17.7116L9.00006 11.1783Z" fill="#FA1239"/>
</svg>
